<svg width="100" height="184" viewBox="0 0 100 184" fill="none" xmlns="http://www.w3.org/2000/svg">
<path d="M56.9311 7.19516C52.7529 10.6392 48.6214 14.106 44.4898 17.5954C41.9689 19.7479 39.658 22.1271 36.7169 23.8491C35.9233 24.3249 34.7095 24.3703 34.3361 25.3219V25.2992C33.4957 25.8204 32.5387 26.2056 31.8385 26.8627C29.1775 29.3325 26.073 31.553 23.8088 34.2267C23.7154 34.34 23.412 34.2947 23.2719 34.4306C22.5717 35.0877 20.2141 37.5575 18.5335 38.985C14.6587 42.2705 10.924 45.6919 8.30972 50.2915C7.91291 51.0166 0.70022 59.5589 4.34157 63.2749C8.12298 67.1494 17.1797 61.1903 18.0667 60.1253C20.1908 57.5196 21.8247 54.3701 24.9292 52.8293C29.4809 50.5635 32.5621 46.7568 36.3435 43.7206C39.7514 40.9789 42.7859 37.852 46.2171 35.133C49.4383 32.5953 53.2898 30.692 56.3009 27.905C58.8918 25.5032 60.5725 22.1724 62.86 19.4534C63.3968 18.8189 64.7974 18.8416 65.4276 18.1618C65.9411 17.5954 66.8514 16.7344 67.0849 15.896C67.1782 15.5335 67.2716 15.1256 67.6217 15.0577C69.3024 14.7178 77.0752 5.88094 72.6403 1.39457C68.3453 -3.02383 60.5491 4.20425 56.9311 7.19516Z" fill="black"/>
<path d="M60.1783 87.0864C56.1401 88.1287 52.102 89.2163 48.0871 90.3265C45.6129 91.0063 43.2553 92.0033 40.6177 92.1392C39.8941 92.1845 38.9838 91.6634 38.4469 92.2978C37.6766 92.3658 36.8596 92.2525 36.1594 92.5018C33.5217 93.4081 30.5806 93.8839 28.1764 95.1528C28.083 95.1981 27.873 95.0168 27.7329 95.0848C27.0327 95.3341 24.6051 96.3764 22.9712 96.8295C19.1898 97.8945 15.4784 99.0954 12.3039 101.86C11.8137 102.29 4.13417 106.346 5.81479 111.195C7.56544 116.248 15.9452 115.274 16.9022 114.775C19.1898 113.529 21.2672 111.558 23.9982 111.648C28.013 111.784 31.3276 109.926 34.9923 109.042C38.2835 108.249 41.388 106.935 44.6792 106.187C47.7837 105.485 51.1449 105.598 54.1327 104.579C56.7003 103.695 58.8711 101.61 61.2987 100.319C61.8823 100.024 62.9093 100.681 63.5629 100.387C64.0998 100.138 65.0101 99.7978 65.4069 99.2087C65.5703 98.9594 65.757 98.6422 66.0371 98.7328C67.391 99.2087 75.584 95.1755 73.4832 89.3069C71.4525 83.529 63.6796 86.1801 60.1783 87.0864Z" fill="black"/>
<path d="M84.177 169.819C78.3882 168.573 72.5994 167.395 66.7872 166.217C63.2159 165.492 59.5979 165.107 56.1433 163.815C55.2096 163.452 54.3459 162.546 53.2722 162.818H53.2956C52.2918 162.455 51.3115 161.957 50.2844 161.776C46.363 161.164 42.3482 160.008 38.4967 159.827C38.3567 159.827 38.1933 159.555 37.9599 159.51C36.9095 159.351 33.1748 158.966 30.8172 158.49C25.3552 157.403 19.8698 156.474 14.1043 157.153C13.194 157.267 0.916106 156.678 0.0524517 161.73C-0.857886 166.987 10.3696 170.59 11.9102 170.635C15.5982 170.771 19.4497 170.182 22.8809 171.7C27.8995 173.921 33.2681 174.102 38.4734 175.257C43.1418 176.3 47.9036 176.844 52.572 177.931C56.9369 178.951 61.1618 180.854 65.5968 181.557C69.4249 182.168 73.4864 181.511 77.3845 181.692C78.2948 181.738 79.2285 182.848 80.2089 182.939C81.0259 183.007 82.403 183.211 83.29 182.893C83.6635 182.757 84.0836 182.576 84.3871 182.825C85.811 183.958 98.7191 184.819 99.7461 178.679C100.703 172.742 89.1956 170.907 84.177 169.819Z" fill="black"/>
</svg>
